# xmcd
#
# Track frame offsets:
#	150
#	19882
#	34100
#	51632
#
# Disc length: 883 seconds
#
# Revision: 3
# Processed by: cddbd v1.5.2PL0 Copyright (c) Steve Scherf et al.
# Submitted via: EasyCDDAExtractor 11.0.2.1
#
DISCID=32037104
DTITLE=Buddy Guy - Slippin' In
DYEAR=1994
DGENRE=Blues
TTITLE0=Tired of sleeping
TTITLE1=Those whole girls (run in grace)
TTITLE2=Left of center (Live in Israel)
TTITLE3=Room off the street (Live in Israel)
EXTD=
EXTT0=
EXTT1=
EXTT2=
EXTT3=
PLAYORDER=
